name rise44.9368peak50.754fall52.0217.mot
datacolumns 19
datarows 12
range 21.77492500000000 21.79325700000000
endheader
time	ground_force1_vx	ground_force1_vy	ground_force1_vz	ground_force1_px	ground_force1_py	ground_force1_pz	ground_force2_vx	ground_force2_vy	ground_force2_vz	ground_force2_px	ground_force2_py	ground_force2_pz	ground_torque1_x	ground_torque1_y	ground_torque1_z	ground_torque2_x	ground_torque2_y	ground_torque2_z	
21.77492500000000	62.87711000000000	749.07956600000000	57.52160500000000	0.38185100000000	0.00000000000000	0.10466600000000	0.00041700000000	6.85276000000000	0.67085900000000	0.00000000000000	0.00000000000000	0.00000000000000	0.00000000000000	31.04724100000000	0.00000000000000	0.00000000000000	0.11193700000000	0.00000000000000	
21.77658900000000	62.42611900000000	752.32886800000006	57.68655300000000	0.38103400000000	0.00000000000000	0.10468400000000	0.20841700000000	3.44538200000000	0.40237800000000	0.00000000000000	0.00000000000000	0.00000000000000	0.00000000000000	31.14698100000000	0.00000000000000	0.00000000000000	0.09588100000000	0.00000000000000	
21.77825100000000	61.97385900000000	755.45928700000002	57.85128800000000	0.38024700000000	0.00000000000000	0.10470300000000	0.00000000000000	0.00000000000000	0.00000000000000	0.00000000000000	0.00000000000000	0.00000000000000	0.00000000000000	31.24829000000000	0.00000000000000	0.00000000000000	0.00000000000000	0.00000000000000	
21.77991800000000	61.52046200000000	758.46842100000003	58.01565400000000	0.37949100000000	0.00000000000000	0.10472200000000	0.00000000000000	0.00000000000000	0.00000000000000	0.00000000000000	0.00000000000000	0.00000000000000	0.00000000000000	31.35108400000000	0.00000000000000	0.00000000000000	0.00000000000000	0.00000000000000	
21.78159000000000	61.06601600000000	761.35401600000000	58.17942700000000	0.37876500000000	0.00000000000000	0.10474200000000	0.00000000000000	0.00000000000000	0.00000000000000	0.00000000000000	0.00000000000000	0.00000000000000	0.00000000000000	31.45522900000000	0.00000000000000	0.00000000000000	0.00000000000000	0.00000000000000	
21.78325300000000	60.61055700000000	764.11398199999996	58.34231900000000	0.37806700000000	0.00000000000000	0.10476200000000	0.00000000000000	0.00000000000000	0.00000000000000	0.00000000000000	0.00000000000000	0.00000000000000	0.00000000000000	31.56054400000000	0.00000000000000	0.00000000000000	0.00000000000000	0.00000000000000	
21.78491900000000	60.15408300000000	766.74639999999999	58.50398400000000	0.37739500000000	0.00000000000000	0.10478300000000	0.00000000000000	0.00000000000000	0.00000000000000	0.00000000000000	0.00000000000000	0.00000000000000	0.00000000000000	31.66680500000000	0.00000000000000	0.00000000000000	0.00000000000000	0.00000000000000	
21.78659000000000	59.69655000000000	769.24953600000003	58.66402100000000	0.37674900000000	0.00000000000000	0.10480400000000	0.00000000000000	0.00000000000000	0.00000000000000	0.00000000000000	0.00000000000000	0.00000000000000	0.00000000000000	31.77374700000000	0.00000000000000	0.00000000000000	0.00000000000000	0.00000000000000	
21.78825600000000	59.23787900000000	771.62184800000000	58.82198200000000	0.37612700000000	0.00000000000000	0.10482600000000	0.00000000000000	0.00000000000000	0.00000000000000	0.00000000000000	0.00000000000000	0.00000000000000	0.00000000000000	31.88106900000000	0.00000000000000	0.00000000000000	0.00000000000000	0.00000000000000	
21.78992400000000	58.77796100000000	773.86199299999998	58.97737400000000	0.37552700000000	0.00000000000000	0.10484900000000	0.00000000000000	0.00000000000000	0.00000000000000	0.00000000000000	0.00000000000000	0.00000000000000	0.00000000000000	31.98843500000000	0.00000000000000	0.00000000000000	0.00000000000000	0.00000000000000	
21.79159200000000	58.31665800000000	775.96884100000000	59.12966800000000	0.37494900000000	0.00000000000000	0.10487100000000	0.00000000000000	0.00000000000000	0.00000000000000	0.00000000000000	0.00000000000000	0.00000000000000	0.00000000000000	32.09547900000000	0.00000000000000	0.00000000000000	0.00000000000000	0.00000000000000	
21.79325700000000	57.85381100000000	777.94147099999998	59.27830100000000	0.37438900000000	0.00000000000000	0.10489500000000	0.00000000000000	0.00000000000000	0.00000000000000	0.00000000000000	0.00000000000000	0.00000000000000	0.00000000000000	32.20181000000000	0.00000000000000	0.00000000000000	0.00000000000000	0.00000000000000	
